<svg width="672" height="504" viewBox="0 0 672 504" fill="none" xmlns="http://www.w3.org/2000/svg">
<mask id="mask0_100_557" style="mask-type:alpha" maskUnits="userSpaceOnUse" x="0" y="0" width="672" height="504">
<rect width="672" height="504" rx="3" fill="#8F8F8F"/>
</mask>
<g mask="url(#mask0_100_557)">
<rect width="672" height="504" rx="3" fill="white"/>
<rect width="672" height="33.3254" fill="#ECECEC"/>
<rect x="10.4336" y="8.3313" width="8.25972" height="15.8296" fill="white"/>
<ellipse cx="28.4741" cy="16.2461" rx="4.12986" ry="7.91478" fill="white"/>
<path d="M41.2985 8.3313L46.0805 24.1609H36.5166L41.2985 8.3313Z" fill="white"/>
<rect x="204.279" y="7.49829" width="264.311" height="18.329" rx="9.16448" fill="#F7F7F7"/>
<path fill-rule="evenodd" clip-rule="evenodd" d="M460.061 18.5295L460.061 19.0751L458.259 22.5217L457.722 21.4926L459.521 18.0391L459.806 18.0391L459.906 17.8526C459.553 17.0652 459.341 16.0429 459.341 14.9309C459.341 12.4512 460.389 10.4413 461.683 10.4413C462.977 10.4413 464.026 12.4512 464.026 14.9309C464.026 17.4105 462.977 19.4205 461.683 19.4205C461.103 19.4205 460.57 19.0129 460.159 18.3361L460.061 18.5295ZM461.683 11.8226C460.786 11.8226 460.061 13.211 460.061 14.9308C460.061 16.6507 460.786 18.039 461.683 18.039C462.58 18.039 463.305 16.6507 463.305 14.9308C463.305 13.211 462.58 11.8226 461.683 11.8226Z" fill="#949494"/>
<path d="M276.55 15.2256L275.05 19.5696L273.754 15.2256H272.518L274.414 20.9976H275.602L277.102 16.6056L278.638 20.9976H279.802L281.674 15.2256H280.486L279.214 19.5696L277.714 15.2256H276.55ZM286.065 15.2256L284.565 19.5696L283.269 15.2256H282.033L283.929 20.9976H285.117L286.617 16.6056L288.153 20.9976H289.317L291.189 15.2256H290.001L288.729 19.5696L287.229 15.2256H286.065ZM295.581 15.2256L294.081 19.5696L292.785 15.2256H291.549L293.445 20.9976H294.633L296.133 16.6056L297.669 20.9976H298.833L300.705 15.2256H299.517L298.245 19.5696L296.745 15.2256H295.581ZM301.244 20.2296C301.244 20.6976 301.604 21.0576 302.072 21.0576C302.54 21.0576 302.912 20.6976 302.912 20.2296C302.912 19.7616 302.54 19.3896 302.072 19.3896C301.604 19.3896 301.244 19.7616 301.244 20.2296ZM305.078 23.4096L308.834 15.2256H307.622L305.894 19.2096L304.094 15.2256H302.798L305.282 20.3616L303.842 23.4096H305.078ZM312.157 20.1696C311.197 20.1696 310.357 19.4496 310.357 18.1056C310.357 16.7736 311.197 16.0536 312.157 16.0536C313.117 16.0536 313.957 16.7736 313.957 18.1056C313.957 19.4496 313.117 20.1696 312.157 20.1696ZM312.157 15.0456C310.429 15.0456 309.205 16.3536 309.205 18.1056C309.205 19.8696 310.429 21.1776 312.157 21.1776C313.885 21.1776 315.109 19.8696 315.109 18.1056C315.109 16.3536 313.885 15.0456 312.157 15.0456ZM320.297 20.3016C320.297 20.5416 320.321 20.8656 320.345 20.9976H321.425C321.401 20.7936 321.365 20.3856 321.365 19.9296V15.2256H320.237V18.7056C320.237 19.5816 319.781 20.1816 318.869 20.1816C317.921 20.1816 317.561 19.4856 317.561 18.6936V15.2256H316.433V18.8616C316.433 20.1696 317.249 21.1776 318.593 21.1776C319.265 21.1776 319.985 20.9016 320.297 20.3016ZM326.494 15.1656C326.434 15.1536 326.278 15.1296 326.122 15.1296C325.534 15.1296 324.814 15.3456 324.394 16.2336V15.2256H323.29V20.9976H324.418V18.1056C324.418 16.8336 325.054 16.3296 326.002 16.3296C326.158 16.3296 326.326 16.3416 326.494 16.3656V15.1656ZM330.528 18.0456V17.0616H327.276V18.0456H330.528ZM335.226 15.2256L333.726 19.5696L332.43 15.2256H331.194L333.09 20.9976H334.278L335.778 16.6056L337.314 20.9976H338.478L340.35 15.2256H339.162L337.89 19.5696L336.39 15.2256H335.226ZM342.104 17.5176C342.152 16.7736 342.728 16.0416 343.676 16.0416C344.696 16.0416 345.236 16.6896 345.26 17.5176H342.104ZM345.428 19.0176C345.212 19.6656 344.744 20.1816 343.808 20.1816C342.836 20.1816 342.092 19.4616 342.068 18.4296H346.412C346.424 18.3576 346.436 18.2136 346.436 18.0696C346.436 16.2696 345.44 15.0456 343.664 15.0456C342.212 15.0456 340.904 16.2816 340.904 18.0936C340.904 20.0496 342.26 21.1776 343.808 21.1776C345.152 21.1776 346.076 20.3736 346.4 19.3536L345.428 19.0176ZM348.992 20.9976V20.1576C349.352 20.7816 350.012 21.1536 350.864 21.1536C352.58 21.1536 353.552 19.7976 353.552 18.0816C353.552 16.4016 352.652 15.0576 350.9 15.0576C349.94 15.0576 349.268 15.5256 348.992 16.0416V12.3096H347.876V20.9976H348.992ZM352.4 18.0816C352.4 19.3296 351.728 20.1456 350.696 20.1456C349.7 20.1456 348.98 19.3296 348.98 18.0816C348.98 16.8336 349.7 16.0536 350.696 16.0536C351.74 16.0536 352.4 16.8336 352.4 18.0816ZM354.449 19.4976C354.545 20.1576 355.217 21.1776 356.801 21.1776C358.229 21.1776 358.913 20.2056 358.913 19.3896C358.913 18.5376 358.361 17.9016 357.317 17.6736L356.381 17.4696C355.937 17.3736 355.721 17.1216 355.721 16.7736C355.721 16.3776 356.105 16.0056 356.681 16.0056C357.593 16.0056 357.833 16.6656 357.881 16.9656L358.877 16.5936C358.757 16.0776 358.265 15.0456 356.681 15.0456C355.553 15.0456 354.629 15.8856 354.629 16.8696C354.629 17.6856 355.169 18.2976 356.069 18.4896L357.053 18.7056C357.533 18.8136 357.797 19.0896 357.797 19.4496C357.797 19.8576 357.449 20.2176 356.813 20.2176C355.997 20.2176 355.541 19.7376 355.469 19.1376L354.449 19.4976ZM361.531 20.9976V15.2256H360.415V20.9976H361.531ZM360.163 13.0416C360.163 13.4856 360.523 13.8456 360.967 13.8456C361.423 13.8456 361.783 13.4856 361.783 13.0416C361.783 12.5856 361.423 12.2256 360.967 12.2256C360.523 12.2256 360.163 12.5856 360.163 13.0416ZM364.962 13.4016H363.93V14.3376C363.93 14.8416 363.666 15.2256 363.042 15.2256H362.73V16.2456H363.834V19.4136C363.834 20.4576 364.458 21.0576 365.442 21.0576C365.826 21.0576 366.114 20.9856 366.21 20.9496V19.9896C366.114 20.0136 365.91 20.0376 365.766 20.0376C365.178 20.0376 364.962 19.7736 364.962 19.2456V16.2456H366.21V15.2256H364.962V13.4016ZM368.389 17.5176C368.437 16.7736 369.013 16.0416 369.961 16.0416C370.981 16.0416 371.521 16.6896 371.545 17.5176H368.389ZM371.713 19.0176C371.497 19.6656 371.029 20.1816 370.093 20.1816C369.121 20.1816 368.377 19.4616 368.353 18.4296H372.697C372.709 18.3576 372.721 18.2136 372.721 18.0696C372.721 16.2696 371.725 15.0456 369.949 15.0456C368.497 15.0456 367.189 16.2816 367.189 18.0936C367.189 20.0496 368.545 21.1776 370.093 21.1776C371.437 21.1776 372.361 20.3736 372.685 19.3536L371.713 19.0176ZM373.865 20.2296C373.865 20.6976 374.225 21.0576 374.693 21.0576C375.161 21.0576 375.533 20.6976 375.533 20.2296C375.533 19.7616 375.161 19.3896 374.693 19.3896C374.225 19.3896 373.865 19.7616 373.865 20.2296ZM379.585 16.0896C380.569 16.0896 380.989 16.7496 381.133 17.3136L382.153 16.8816C381.913 16.0056 381.121 15.0456 379.585 15.0456C377.941 15.0456 376.681 16.3056 376.681 18.1056C376.681 19.8576 377.917 21.1776 379.597 21.1776C381.097 21.1776 381.925 20.2056 382.201 19.3776L381.205 18.9456C381.073 19.4016 380.677 20.1336 379.597 20.1336C378.661 20.1336 377.833 19.4256 377.833 18.1056C377.833 16.7616 378.673 16.0896 379.585 16.0896ZM385.938 20.1696C384.978 20.1696 384.138 19.4496 384.138 18.1056C384.138 16.7736 384.978 16.0536 385.938 16.0536C386.898 16.0536 387.738 16.7736 387.738 18.1056C387.738 19.4496 386.898 20.1696 385.938 20.1696ZM385.938 15.0456C384.21 15.0456 382.986 16.3536 382.986 18.1056C382.986 19.8696 384.21 21.1776 385.938 21.1776C387.666 21.1776 388.89 19.8696 388.89 18.1056C388.89 16.3536 387.666 15.0456 385.938 15.0456ZM391.449 20.9976V17.5176C391.449 16.6536 391.989 16.0536 392.793 16.0536C393.657 16.0536 394.017 16.6296 394.017 17.3736V20.9976H395.145V17.5056C395.145 16.6776 395.685 16.0536 396.477 16.0536C397.329 16.0536 397.701 16.6176 397.701 17.3736V20.9976H398.817V17.2536C398.817 15.7416 397.833 15.0576 396.825 15.0576C396.093 15.0576 395.349 15.3216 394.893 16.1496C394.581 15.4056 393.885 15.0576 393.165 15.0576C392.493 15.0576 391.773 15.3576 391.413 15.9936V15.2256H390.333V20.9976H391.449Z" fill="#949494"/>
</g>
</svg>
