<svg width="215" height="412" viewBox="0 0 215 412" fill="none" xmlns="http://www.w3.org/2000/svg">
<mask id="mask0_100_575" style="mask-type:alpha" maskUnits="userSpaceOnUse" x="0" y="0" width="215" height="412">
<rect width="215" height="412" rx="3" fill="#8F8F8F"/>
</mask>
<g mask="url(#mask0_100_575)">
<rect width="215" height="412" rx="3" fill="white"/>
<rect width="215" height="33.3254" fill="#ECECEC"/>
<rect x="10.4336" y="8.3313" width="8.25972" height="15.8296" fill="white"/>
<ellipse cx="28.4741" cy="16.2461" rx="4.12986" ry="7.91478" fill="white"/>
<path d="M41.2985 8.3313L46.0805 24.1609H36.5166L41.2985 8.3313Z" fill="white"/>
<rect x="-23.7207" y="7.49829" width="264.311" height="18.329" rx="9.16448" fill="#F7F7F7"/>
<path d="M48.5498 15.2256L47.0498 19.5696L45.7538 15.2256H44.5178L46.4138 20.9976H47.6018L49.1018 16.6056L50.6378 20.9976H51.8018L53.6738 15.2256H52.4858L51.2138 19.5696L49.7138 15.2256H48.5498ZM58.0655 15.2256L56.5655 19.5696L55.2695 15.2256H54.0335L55.9295 20.9976H57.1175L58.6175 16.6056L60.1535 20.9976H61.3175L63.1895 15.2256H62.0015L60.7295 19.5696L59.2295 15.2256H58.0655ZM67.5811 15.2256L66.0811 19.5696L64.7851 15.2256H63.5491L65.4451 20.9976H66.6331L68.1331 16.6056L69.6691 20.9976H70.8331L72.7051 15.2256H71.5171L70.2451 19.5696L68.7451 15.2256H67.5811ZM73.2443 20.2296C73.2443 20.6976 73.6043 21.0576 74.0723 21.0576C74.5403 21.0576 74.9123 20.6976 74.9123 20.2296C74.9123 19.7616 74.5403 19.3896 74.0723 19.3896C73.6043 19.3896 73.2443 19.7616 73.2443 20.2296ZM77.0777 23.4096L80.8337 15.2256H79.6217L77.8937 19.2096L76.0937 15.2256H74.7977L77.2817 20.3616L75.8417 23.4096H77.0777ZM84.1566 20.1696C83.1966 20.1696 82.3566 19.4496 82.3566 18.1056C82.3566 16.7736 83.1966 16.0536 84.1566 16.0536C85.1166 16.0536 85.9566 16.7736 85.9566 18.1056C85.9566 19.4496 85.1166 20.1696 84.1566 20.1696ZM84.1566 15.0456C82.4286 15.0456 81.2046 16.3536 81.2046 18.1056C81.2046 19.8696 82.4286 21.1776 84.1566 21.1776C85.8846 21.1776 87.1086 19.8696 87.1086 18.1056C87.1086 16.3536 85.8846 15.0456 84.1566 15.0456ZM92.2972 20.3016C92.2972 20.5416 92.3212 20.8656 92.3452 20.9976H93.4252C93.4012 20.7936 93.3652 20.3856 93.3652 19.9296V15.2256H92.2372V18.7056C92.2372 19.5816 91.7812 20.1816 90.8692 20.1816C89.9212 20.1816 89.5612 19.4856 89.5612 18.6936V15.2256H88.4332V18.8616C88.4332 20.1696 89.2492 21.1776 90.5932 21.1776C91.2652 21.1776 91.9852 20.9016 92.2972 20.3016ZM98.494 15.1656C98.434 15.1536 98.278 15.1296 98.122 15.1296C97.534 15.1296 96.814 15.3456 96.394 16.2336V15.2256H95.29V20.9976H96.418V18.1056C96.418 16.8336 97.054 16.3296 98.002 16.3296C98.158 16.3296 98.326 16.3416 98.494 16.3656V15.1656ZM102.528 18.0456V17.0616H99.2763V18.0456H102.528ZM107.226 15.2256L105.726 19.5696L104.43 15.2256H103.194L105.09 20.9976H106.278L107.778 16.6056L109.314 20.9976H110.478L112.35 15.2256H111.162L109.89 19.5696L108.39 15.2256H107.226ZM114.104 17.5176C114.152 16.7736 114.728 16.0416 115.676 16.0416C116.696 16.0416 117.236 16.6896 117.26 17.5176H114.104ZM117.428 19.0176C117.212 19.6656 116.744 20.1816 115.808 20.1816C114.836 20.1816 114.092 19.4616 114.068 18.4296H118.412C118.424 18.3576 118.436 18.2136 118.436 18.0696C118.436 16.2696 117.44 15.0456 115.664 15.0456C114.212 15.0456 112.904 16.2816 112.904 18.0936C112.904 20.0496 114.26 21.1776 115.808 21.1776C117.152 21.1776 118.076 20.3736 118.4 19.3536L117.428 19.0176ZM120.992 20.9976V20.1576C121.352 20.7816 122.012 21.1536 122.864 21.1536C124.58 21.1536 125.552 19.7976 125.552 18.0816C125.552 16.4016 124.652 15.0576 122.9 15.0576C121.94 15.0576 121.268 15.5256 120.992 16.0416V12.3096H119.876V20.9976H120.992ZM124.4 18.0816C124.4 19.3296 123.728 20.1456 122.696 20.1456C121.7 20.1456 120.98 19.3296 120.98 18.0816C120.98 16.8336 121.7 16.0536 122.696 16.0536C123.74 16.0536 124.4 16.8336 124.4 18.0816ZM126.449 19.4976C126.545 20.1576 127.217 21.1776 128.801 21.1776C130.229 21.1776 130.913 20.2056 130.913 19.3896C130.913 18.5376 130.361 17.9016 129.317 17.6736L128.381 17.4696C127.937 17.3736 127.721 17.1216 127.721 16.7736C127.721 16.3776 128.105 16.0056 128.681 16.0056C129.593 16.0056 129.833 16.6656 129.881 16.9656L130.877 16.5936C130.757 16.0776 130.265 15.0456 128.681 15.0456C127.553 15.0456 126.629 15.8856 126.629 16.8696C126.629 17.6856 127.169 18.2976 128.069 18.4896L129.053 18.7056C129.533 18.8136 129.797 19.0896 129.797 19.4496C129.797 19.8576 129.449 20.2176 128.813 20.2176C127.997 20.2176 127.541 19.7376 127.469 19.1376L126.449 19.4976ZM133.531 20.9976V15.2256H132.415V20.9976H133.531ZM132.163 13.0416C132.163 13.4856 132.523 13.8456 132.967 13.8456C133.423 13.8456 133.783 13.4856 133.783 13.0416C133.783 12.5856 133.423 12.2256 132.967 12.2256C132.523 12.2256 132.163 12.5856 132.163 13.0416ZM136.962 13.4016H135.93V14.3376C135.93 14.8416 135.666 15.2256 135.042 15.2256H134.73V16.2456H135.834V19.4136C135.834 20.4576 136.458 21.0576 137.442 21.0576C137.826 21.0576 138.114 20.9856 138.21 20.9496V19.9896C138.114 20.0136 137.91 20.0376 137.766 20.0376C137.178 20.0376 136.962 19.7736 136.962 19.2456V16.2456H138.21V15.2256H136.962V13.4016ZM140.389 17.5176C140.437 16.7736 141.013 16.0416 141.961 16.0416C142.981 16.0416 143.521 16.6896 143.545 17.5176H140.389ZM143.713 19.0176C143.497 19.6656 143.029 20.1816 142.093 20.1816C141.121 20.1816 140.377 19.4616 140.353 18.4296H144.697C144.709 18.3576 144.721 18.2136 144.721 18.0696C144.721 16.2696 143.725 15.0456 141.949 15.0456C140.497 15.0456 139.189 16.2816 139.189 18.0936C139.189 20.0496 140.545 21.1776 142.093 21.1776C143.437 21.1776 144.361 20.3736 144.685 19.3536L143.713 19.0176ZM145.865 20.2296C145.865 20.6976 146.225 21.0576 146.693 21.0576C147.161 21.0576 147.533 20.6976 147.533 20.2296C147.533 19.7616 147.161 19.3896 146.693 19.3896C146.225 19.3896 145.865 19.7616 145.865 20.2296ZM151.585 16.0896C152.569 16.0896 152.989 16.7496 153.133 17.3136L154.153 16.8816C153.913 16.0056 153.121 15.0456 151.585 15.0456C149.941 15.0456 148.681 16.3056 148.681 18.1056C148.681 19.8576 149.917 21.1776 151.597 21.1776C153.097 21.1776 153.925 20.2056 154.201 19.3776L153.205 18.9456C153.073 19.4016 152.677 20.1336 151.597 20.1336C150.661 20.1336 149.833 19.4256 149.833 18.1056C149.833 16.7616 150.673 16.0896 151.585 16.0896ZM157.938 20.1696C156.978 20.1696 156.138 19.4496 156.138 18.1056C156.138 16.7736 156.978 16.0536 157.938 16.0536C158.898 16.0536 159.738 16.7736 159.738 18.1056C159.738 19.4496 158.898 20.1696 157.938 20.1696ZM157.938 15.0456C156.21 15.0456 154.986 16.3536 154.986 18.1056C154.986 19.8696 156.21 21.1776 157.938 21.1776C159.666 21.1776 160.89 19.8696 160.89 18.1056C160.89 16.3536 159.666 15.0456 157.938 15.0456ZM163.449 20.9976V17.5176C163.449 16.6536 163.989 16.0536 164.793 16.0536C165.657 16.0536 166.017 16.6296 166.017 17.3736V20.9976H167.145V17.5056C167.145 16.6776 167.685 16.0536 168.477 16.0536C169.329 16.0536 169.701 16.6176 169.701 17.3736V20.9976H170.817V17.2536C170.817 15.7416 169.833 15.0576 168.825 15.0576C168.093 15.0576 167.349 15.3216 166.893 16.1496C166.581 15.4056 165.885 15.0576 165.165 15.0576C164.493 15.0576 163.773 15.3576 163.413 15.9936V15.2256H162.333V20.9976H163.449Z" fill="#949494"/>
</g>
</svg>
